<svg xmlns="http://www.w3.org/2000/svg" width="900" height="76" viewBox="0 0 900 76" preserveAspectRatio="none"><path d="M0 40.0 L10 41.4 L20 42.8 L30 44.2 L40 45.5 L50 46.8 L60 48.1 L70 49.4 L80 50.6 L90 51.8 L100 52.9 L110 53.9 L120 54.9 L130 55.8 L140 56.6 L150 57.3 L160 58.0 L170 58.5 L180 59.0 L190 59.4 L200 59.7 L210 59.9 L220 60.0 L230 60.0 L240 59.9 L250 59.7 L260 59.4 L270 59.0 L280 58.5 L290 58.0 L300 57.3 L310 56.6 L320 55.8 L330 54.9 L340 53.9 L350 52.9 L360 51.8 L370 50.6 L380 49.4 L390 48.1 L400 46.8 L410 45.5 L420 44.2 L430 42.8 L440 41.4 L450 40.0 L460 38.6 L470 37.2 L480 35.8 L490 34.5 L500 33.2 L510 31.9 L520 30.6 L530 29.4 L540 28.2 L550 27.1 L560 26.1 L570 25.1 L580 24.2 L590 23.4 L600 22.7 L610 22.0 L620 21.5 L630 21.0 L640 20.6 L650 20.3 L660 20.1 L670 20.0 L680 20.0 L690 20.1 L700 20.3 L710 20.6 L720 21.0 L730 21.5 L740 22.0 L750 22.7 L760 23.4 L770 24.2 L780 25.1 L790 26.1 L800 27.1 L810 28.2 L820 29.4 L830 30.6 L840 31.9 L850 33.2 L860 34.5 L870 35.8 L880 37.2 L890 38.6 L900 40.0 L900 76 L0 76 Z" fill="#4da3ff"/><path d="M0 40.0 L10 41.4 L20 42.8 L30 44.2 L40 45.5 L50 46.8 L60 48.1 L70 49.4 L80 50.6 L90 51.8 L100 52.9 L110 53.9 L120 54.9 L130 55.8 L140 56.6 L150 57.3 L160 58.0 L170 58.5 L180 59.0 L190 59.4 L200 59.7 L210 59.9 L220 60.0 L230 60.0 L240 59.9 L250 59.7 L260 59.4 L270 59.0 L280 58.5 L290 58.0 L300 57.3 L310 56.6 L320 55.8 L330 54.9 L340 53.9 L350 52.9 L360 51.8 L370 50.6 L380 49.4 L390 48.1 L400 46.8 L410 45.5 L420 44.2 L430 42.8 L440 41.4 L450 40.0 L460 38.6 L470 37.2 L480 35.8 L490 34.5 L500 33.2 L510 31.9 L520 30.6 L530 29.4 L540 28.2 L550 27.1 L560 26.1 L570 25.1 L580 24.2 L590 23.4 L600 22.7 L610 22.0 L620 21.5 L630 21.0 L640 20.6 L650 20.3 L660 20.1 L670 20.0 L680 20.0 L690 20.1 L700 20.3 L710 20.6 L720 21.0 L730 21.5 L740 22.0 L750 22.7 L760 23.4 L770 24.2 L780 25.1 L790 26.1 L800 27.1 L810 28.2 L820 29.4 L830 30.6 L840 31.9 L850 33.2 L860 34.5 L870 35.8 L880 37.2 L890 38.6 L900 40.0" fill="none" stroke="#14213d" stroke-width="3"/></svg>